<svg xmlns="http://www.w3.org/2000/svg" width="269" height="59" viewBox="0 0 269 59">
<g>
<path d="M 135.00 32.39 C135.00,18.57 135.18,16.86 136.58,17.39 C137.45,17.73 139.39,18.00 140.89,18.00 C141.32,18.00 141.71,18.04 142.08,18.16 C141.56,18.03 140.97,18.00 140.23,18.00 C138.25,18.00 137.13,18.41 137.50,19.00 C137.84,19.55 138.94,20.00 139.94,20.00 C140.94,20.00 143.42,22.02 145.45,24.50 C147.47,26.98 149.31,29.00 149.52,29.00 C149.66,29.00 149.09,27.78 148.14,26.01 C148.57,26.77 149.04,27.59 149.55,28.49 C151.19,31.38 152.73,34.00 153.91,35.90 C153.84,35.80 153.76,35.69 153.69,35.59 C152.54,34.02 152.42,34.27 152.76,37.65 C153.13,41.42 153.04,41.34 148.58,34.00 C146.07,29.88 144.02,25.91 144.01,25.18 C144.00,23.52 139.82,24.02 139.24,25.75 C139.02,26.44 139.47,27.00 140.24,27.00 C140.38,27.00 140.60,27.16 140.89,27.44 C140.78,28.16 140.73,29.68 140.72,31.70 C140.48,29.09 139.89,28.55 138.96,30.03 C137.70,32.02 137.73,45.00 139.00,45.00 C139.55,45.00 140.09,45.79 140.20,46.75 C140.32,47.71 140.56,44.71 140.75,40.08 C140.79,39.11 140.81,38.20 140.83,37.36 C140.83,37.41 140.84,37.45 140.84,37.50 L 141.23 48.00 L 135.00 48.00 ZM 20.12 45.75 C20.22,44.51 20.24,38.91 20.16,33.31 L 20.02 24.34 C20.08,24.49 20.12,24.65 20.14,24.82 C20.21,25.76 20.47,25.48 20.72,24.16 C21.30,21.08 20.66,20.60 17.30,21.57 L 14.50 22.39 L 17.25 22.76 C17.62,22.81 17.97,22.89 18.28,22.99 L 15.75 22.81 C14.90,22.75 14.22,22.68 13.67,22.60 C13.87,22.32 14.00,21.93 14.00,21.50 C14.00,20.28 15.55,20.01 22.25,20.08 C26.79,20.12 29.94,20.38 29.25,20.66 C27.03,21.56 27.89,22.87 30.63,22.99 C30.44,23.00 30.24,23.00 30.03,23.00 L 26.00 23.00 L 26.00 48.00 L 22.96 48.00 C20.42,48.00 19.96,47.63 20.12,45.75 ZM 238.67 28.33 C239.03,28.70 240.25,29.00 241.37,29.00 C242.95,29.00 243.13,28.73 242.20,27.80 C241.65,27.25 241.18,26.18 241.04,25.24 C241.33,26.61 243.12,28.36 246.68,30.72 C253.14,35.02 254.90,38.42 253.01,42.98 C252.31,44.67 250.83,46.07 248.68,47.09 C249.32,46.67 249.47,46.29 249.05,46.03 C248.19,45.50 248.20,44.65 249.11,42.66 C250.13,40.41 250.04,39.70 248.50,38.00 C247.51,36.90 246.24,36.00 245.69,36.00 C245.14,36.00 245.49,36.88 246.47,37.96 C247.69,39.31 248.07,40.46 247.69,41.32 C248.24,39.16 245.31,36.16 240.25,33.78 C237.91,32.68 235.97,31.49 235.92,31.14 C235.88,30.79 235.61,29.60 235.33,28.50 C234.38,24.86 234.72,22.35 236.52,20.23 C236.47,20.53 236.66,20.79 237.07,21.04 C237.80,21.50 238.88,21.61 239.45,21.29 C240.03,20.97 239.94,21.31 239.25,22.05 C237.91,23.49 237.57,27.23 238.67,28.33 ZM 174.96 44.46 C176.33,46.11 186.57,46.63 187.87,45.30 C187.86,45.43 187.84,45.58 187.81,45.75 C187.53,47.22 186.14,47.55 178.99,47.79 L 170.50 48.07 L 170.79 33.76 C170.62,42.96 170.87,47.88 171.50,47.67 C172.08,47.48 172.62,41.64 172.78,33.67 C172.94,25.68 173.46,20.00 174.03,20.00 C174.56,20.00 175.00,20.79 175.00,21.75 C175.00,22.82 175.38,23.22 177.48,23.21 C176.14,23.54 176.00,24.16 176.00,25.57 C176.00,28.44 179.15,30.08 183.18,29.31 C184.01,29.15 184.70,29.14 185.24,29.26 C184.60,29.17 184.00,29.54 184.00,30.42 C184.00,31.29 183.32,32.07 182.50,32.15 C181.68,32.23 180.44,32.35 179.75,32.40 C179.06,32.46 178.61,31.82 178.74,30.98 C179.04,29.09 175.37,26.59 174.46,28.06 C174.11,28.63 174.35,29.72 175.00,30.50 C175.64,31.27 175.89,32.77 175.55,33.83 C174.99,35.60 175.35,35.72 179.72,35.27 C182.68,34.96 185.03,33.98 186.13,32.76 C186.10,32.81 186.07,32.87 186.04,32.92 C185.30,34.30 183.73,34.98 180.75,35.19 C176.92,35.47 176.47,35.78 176.18,38.31 C175.70,42.51 177.53,44.00 183.20,44.00 C185.97,44.00 187.22,44.12 187.67,44.64 C186.95,44.27 185.18,44.00 183.12,44.00 C179.95,44.00 177.80,43.46 176.96,42.46 C176.11,41.43 175.35,41.25 174.68,41.92 C174.02,42.58 174.11,43.43 174.96,44.46 ZM 91.24 32.48 C91.25,25.47 91.27,21.63 91.48,19.58 C91.75,19.84 92.11,20.00 92.50,20.00 C93.62,20.00 94.00,21.20 94.00,24.80 C94.00,27.44 94.54,30.14 95.20,30.80 C96.13,31.73 96.13,32.27 95.20,33.20 C94.54,33.86 94.00,36.33 94.00,38.70 C94.00,43.22 92.45,44.60 91.71,40.75 C91.46,39.49 91.31,39.37 91.21,40.47 ZM 39.25 34.53 C39.41,44.62 39.78,48.00 40.73,48.00 C41.70,48.00 42.00,44.63 42.00,34.00 C42.00,26.30 42.39,20.00 42.88,20.00 C43.36,20.00 43.53,22.02 43.25,24.49 C42.92,27.37 43.20,29.54 44.03,30.53 C45.00,31.71 45.03,32.37 44.16,33.24 C42.63,34.77 42.67,43.27 44.20,44.80 C44.86,45.46 47.24,46.00 49.50,46.00 C51.76,46.00 54.13,46.53 54.78,47.18 C55.08,47.48 55.36,47.69 55.61,47.81 C54.05,47.92 51.32,48.00 48.23,48.00 L 39.47 48.00 L 39.25 34.53 ZM 116.00 33.00 L 116.00 48.00 L 111.00 48.00 C112.41,48.00 112.27,34.67 110.84,33.24 C110.00,32.40 109.98,31.72 110.78,30.77 C111.38,30.04 112.04,27.21 112.26,24.47 C112.47,21.74 112.72,25.18 112.82,32.13 C112.96,41.97 113.33,45.03 114.50,46.00 C115.81,47.09 116.00,45.54 116.00,33.00 ZM 161.78 33.25 L 162.05 48.00 L 157.76 48.00 C156.68,48.00 155.81,47.95 155.11,47.82 C155.40,47.43 155.43,46.62 154.98,45.43 C153.59,41.79 153.70,41.50 156.50,41.50 C158.38,41.50 159.00,42.02 159.00,43.63 C159.00,44.80 159.69,46.33 160.53,47.02 C161.89,48.15 162.02,46.66 161.78,33.40 L 161.50 18.50 L 161.78 33.25 ZM 100.71 29.57 C100.80,29.58 100.90,29.59 101.00,29.59 C102.93,29.78 105.77,29.67 107.32,29.37 C107.35,29.36 107.38,29.36 107.41,29.35 C107.19,29.60 107.15,29.96 107.33,30.42 C108.03,32.25 106.33,32.86 102.22,32.25 C99.48,31.84 99.15,31.53 100.17,30.29 C100.42,29.99 100.60,29.75 100.71,29.57 ZM 223.64 47.57 L 220.92 47.80 C219.11,47.95 218.20,47.93 217.52,47.27 C217.78,47.48 217.95,47.22 217.96,46.36 C218.02,43.01 220.75,42.66 222.41,45.79 C222.94,46.79 223.33,47.37 223.64,47.57 ZM 223.52 26.41 C224.48,22.47 225.47,19.16 226.14,17.87 C226.16,18.26 226.39,18.77 226.77,19.23 C227.35,19.93 227.59,21.74 227.29,23.25 C226.74,26.13 225.48,26.87 224.72,24.75 C224.51,24.15 224.03,24.97 223.52,26.41 ZM 199.54 47.83 C199.81,47.59 200.00,46.99 200.00,46.00 C200.00,44.90 200.64,44.00 201.43,44.00 C202.22,44.00 203.15,44.90 203.50,46.00 C203.85,47.10 204.46,48.00 204.87,48.00 L 201.91 48.00 C200.87,48.00 200.11,47.96 199.54,47.83 ZM 53.12 29.59 C53.04,29.79 53.00,30.07 53.00,30.42 C53.00,31.46 52.10,32.00 50.39,32.00 C48.41,32.00 47.93,31.62 48.40,30.39 C48.53,30.05 48.60,29.79 48.61,29.59 C49.19,29.60 49.89,29.59 50.75,29.58 C51.72,29.56 52.50,29.56 53.12,29.59 ZM 94.36 46.50 C94.66,47.28 94.96,47.77 95.24,48.00 L 91.19 48.00 L 91.20 43.50 C91.36,44.50 91.76,45.00 92.39,45.00 C93.16,45.00 94.05,45.67 94.36,46.50 ZM 212.00 22.00 C212.00,23.95 210.94,24.61 209.74,23.40 C208.93,22.60 209.98,20.00 211.11,20.00 C211.60,20.00 212.00,20.90 212.00,22.00 ZM 237.25 47.75 C234.55,46.89 234.00,46.21 234.00,43.75 C234.00,41.61 234.23,41.05 235.25,41.37 C235.08,41.52 235.18,41.99 235.45,42.83 C235.81,43.98 235.56,45.16 234.85,45.60 C234.03,46.10 234.79,46.78 237.06,47.60 C238.05,47.96 238.90,48.25 239.67,48.45 C238.95,48.28 238.16,48.04 237.25,47.75 ZM 251.55 18.48 C252.79,19.20 253.06,20.23 252.59,21.73 C252.05,23.41 251.25,23.60 246.49,23.21 C245.97,23.16 245.50,23.13 245.08,23.10 C245.35,23.11 245.63,23.13 245.93,23.15 C250.52,23.48 250.90,23.32 251.34,21.00 C251.54,19.99 251.61,19.01 251.55,18.48 ZM 244.20 44.80 C245.13,45.73 244.87,46.00 243.00,46.00 C241.13,46.00 240.87,45.73 241.80,44.80 C242.73,43.87 243.27,43.87 244.20,44.80 ZM 95.92 48.00 C96.56,47.42 97.00,45.10 97.00,41.50 L 97.00 48.00 L 95.92 48.00 ZM 208.08 37.75 L 205.60 48.00 L 204.87 48.00 C205.27,48.00 206.71,43.39 208.08,37.75 ZM 236.85 41.92 C238.20,42.26 240.31,42.60 242.24,42.77 C243.20,42.86 243.98,42.90 244.63,42.90 C244.13,42.97 243.58,43.00 242.97,43.00 C240.72,43.00 237.97,42.51 236.85,41.92 ZM 110.00 41.50 C110.00,45.17 110.44,48.00 111.00,48.00 L 110.00 48.00 L 110.00 41.50 ZM 11.50 17.50 L 16.17 17.63 C13.67,17.68 12.22,17.93 11.50,18.46 L 11.50 17.50 ZM 218.12 33.45 C219.47,38.47 220.24,40.11 220.84,38.97 C220.14,40.55 219.82,40.09 218.12,33.45 ZM 154.38 36.66 C155.11,37.82 155.65,38.61 155.90,38.89 C155.87,38.96 155.83,39.00 155.79,39.00 C155.36,39.00 155.00,38.64 155.00,38.19 C155.00,37.90 154.75,37.31 154.38,36.66 ZM 220.98 38.63 C221.16,38.14 221.32,37.38 221.49,36.38 C221.62,35.52 221.78,34.63 221.95,33.73 C221.94,33.82 221.94,33.91 221.94,34.00 C221.89,35.38 221.49,37.40 221.04,38.50 C221.02,38.54 221.00,38.59 220.98,38.63 ZM 56.53 47.72 C56.80,47.38 56.80,46.65 56.42,45.64 C56.37,45.52 56.31,45.40 56.24,45.29 C56.77,45.84 57.00,46.60 57.00,47.58 C57.00,47.63 56.84,47.67 56.53,47.72 ZM 217.36 47.09 C216.91,46.54 216.54,45.67 216.04,44.30 C215.47,42.76 214.71,39.85 214.12,37.00 C215.11,41.66 216.55,46.01 217.36,47.09 ZM 225.69 42.32 L 224.40 47.50 L 224.10 47.53 C224.21,47.42 224.30,47.24 224.39,47.00 C224.59,46.43 225.07,44.68 225.69,42.32 ZM 238.73 18.27 C240.11,17.30 241.32,17.01 243.67,17.10 C241.57,17.09 240.11,17.45 238.73,18.27 ZM 152.49 46.05 C151.19,43.50 148.79,39.28 146.51,35.46 C148.55,38.76 150.72,42.58 152.49,46.05 ZM 51.07 35.00 C55.97,35.00 56.12,34.91 55.82,32.33 C55.70,31.37 55.35,30.55 54.93,29.97 C55.53,30.34 55.67,31.02 55.82,32.25 C56.12,34.93 56.00,35.00 51.07,35.00 ZM 94.03 17.80 C96.38,18.56 96.44,19.00 96.98,24.19 C97.33,27.63 97.49,28.74 98.69,29.21 C97.65,29.10 97.35,28.00 96.98,24.31 C96.45,19.05 96.40,18.57 94.03,17.80 ZM 32.60 22.78 C33.55,22.51 34.29,21.99 34.69,21.37 C34.68,21.39 34.67,21.41 34.66,21.43 C34.41,22.10 33.73,22.54 32.60,22.78 ZM 47.18 29.46 C46.60,29.58 46.28,29.31 46.12,28.47 C46.26,29.02 46.55,29.31 47.18,29.46 ZM 27.24 17.98 C29.44,18.10 31.07,18.25 32.25,18.48 C30.98,18.30 29.24,18.12 27.24,17.98 ZM 108.78 28.98 C109.53,28.67 109.85,28.21 109.96,27.20 C109.85,28.42 109.49,28.89 108.78,28.98 ZM 211.50 27.50 L 211.51 27.50 C211.04,27.52 209.77,31.18 208.53,35.96 C209.77,31.17 211.05,27.50 211.50,27.50 ZM 187.82 20.25 C187.67,21.27 187.42,21.84 186.53,22.20 C187.42,21.82 187.68,21.24 187.82,20.25 ZM 197.68 45.25 C197.81,45.92 197.99,46.48 198.20,46.91 C197.97,46.51 197.82,45.97 197.68,45.25 ZM 46.29 23.91 C46.75,23.06 47.99,22.99 51.25,22.80 C47.99,22.99 46.75,23.07 46.29,23.91 ZM 110.01 25.84 C110.01,25.49 109.99,25.09 109.98,24.66 C109.83,20.98 109.80,19.33 110.38,18.59 C109.79,19.34 109.83,21.00 109.98,24.75 C110.00,25.15 110.01,25.51 110.01,25.84 ZM 185.88 29.51 C186.11,29.64 186.29,29.82 186.42,30.03 C186.26,29.81 186.08,29.64 185.88,29.51 ZM 213.79 35.39 C213.70,34.91 213.62,34.45 213.55,34.00 C213.54,33.95 213.53,33.89 213.52,33.84 C213.56,34.06 213.60,34.28 213.63,34.50 C213.69,34.80 213.74,35.09 213.79,35.39 ZM 241.04 24.14 C241.01,24.32 241.00,24.52 241.00,24.75 C241.00,24.74 241.00,24.72 241.00,24.70 C241.00,24.49 241.01,24.30 241.04,24.14 ZM 46.00 26.60 C46.00,26.58 46.00,26.55 46.00,26.52 L 46.00 26.43 C46.00,26.49 46.00,26.55 46.00,26.60 Z" fill="rgba(30,71,255,1)"/>
<path d="M 197.68 45.25 C197.37,43.74 196.64,40.47 196.05,38.00 C195.46,35.53 194.74,32.38 194.44,31.00 C194.15,29.62 193.48,26.92 192.96,25.00 C191.51,19.67 191.75,18.00 193.96,18.00 C196.61,18.00 197.49,19.95 199.54,30.29 C200.60,35.63 201.72,38.93 202.39,38.70 C203.00,38.50 204.04,35.34 204.71,31.68 C205.37,28.01 206.41,23.19 207.01,20.96 C207.96,17.42 208.39,16.98 210.30,17.56 C213.92,18.64 214.78,20.11 217.00,29.00 C219.91,40.65 220.03,40.94 221.04,38.50 C221.49,37.40 221.89,35.38 221.94,34.00 C222.04,30.41 224.20,23.27 224.72,24.75 C225.48,26.87 226.74,26.13 227.29,23.25 C227.59,21.74 227.35,19.93 226.77,19.23 C226.19,18.53 225.97,17.70 226.27,17.39 C227.06,16.61 231.00,18.86 231.00,20.09 C231.00,21.22 225.25,44.60 224.39,47.00 C223.98,48.12 223.48,47.81 222.41,45.79 C220.75,42.66 218.02,43.01 217.96,46.36 C217.89,50.19 214.93,42.07 213.63,34.50 C212.98,30.65 212.02,27.50 211.50,27.50 C210.99,27.50 209.45,32.11 208.08,37.75 C206.71,43.39 205.27,48.00 204.87,48.00 C204.46,48.00 203.85,47.10 203.50,46.00 C203.15,44.90 202.22,44.00 201.43,44.00 C200.64,44.00 200.00,44.90 200.00,46.00 C200.00,48.97 198.31,48.42 197.68,45.25 ZM 94.36 46.50 C94.05,45.67 93.16,45.00 92.39,45.00 C91.46,45.00 91.04,43.93 91.14,41.75 C91.23,39.40 91.39,39.12 91.71,40.75 C92.45,44.60 94.00,43.22 94.00,38.70 C94.00,36.33 94.54,33.86 95.20,33.20 C96.13,32.27 96.13,31.73 95.20,30.80 C94.54,30.14 94.00,27.44 94.00,24.80 C94.00,21.20 93.62,20.00 92.50,20.00 C91.68,20.00 91.00,19.29 91.00,18.43 C91.00,17.27 91.58,17.04 93.25,17.56 C96.39,18.52 96.40,18.53 96.98,24.31 C97.43,28.77 97.78,29.45 99.45,29.16 C101.06,28.88 101.18,29.08 100.17,30.29 C99.15,31.53 99.48,31.84 102.22,32.25 C106.33,32.86 108.03,32.25 107.33,30.42 C106.99,29.54 107.43,29.00 108.47,29.00 C109.81,29.00 110.12,28.13 109.98,24.75 C109.72,18.17 109.80,18.00 113.00,18.00 L 116.00 18.00 L 116.00 32.62 C116.00,45.51 115.82,47.10 114.50,46.00 C113.33,45.03 112.96,41.97 112.82,32.13 C112.72,25.18 112.47,21.74 112.26,24.47 C112.04,27.21 111.38,30.04 110.78,30.77 C109.98,31.72 110.00,32.40 110.84,33.24 C112.27,34.67 112.41,48.00 111.00,48.00 C110.44,48.00 110.00,45.17 110.00,41.50 L 110.00 35.00 L 97.00 35.00 L 97.00 41.50 C97.00,47.62 95.72,50.05 94.36,46.50 ZM 70.15 47.36 C68.10,46.32 66.21,44.27 65.28,42.08 C64.44,40.11 63.36,37.72 62.88,36.76 C61.38,33.79 61.90,30.38 64.68,25.03 C67.95,18.72 71.56,16.58 77.75,17.28 C82.72,17.84 84.55,19.12 83.66,21.43 C83.23,22.56 81.68,23.00 78.10,23.00 C73.94,23.00 72.81,23.42 71.07,25.63 C67.94,29.62 68.19,37.28 71.57,40.67 C71.83,40.92 72.06,41.15 72.29,41.35 C71.40,40.69 70.64,39.82 69.97,38.72 C68.89,36.95 68.01,36.10 68.00,36.83 C68.00,37.56 69.32,39.47 70.92,41.08 C73.03,43.18 74.82,44.00 77.30,44.00 C80.98,44.00 84.18,46.37 81.79,47.32 C81.17,47.57 80.96,47.73 81.14,47.82 C78.05,48.96 73.48,49.05 70.15,47.36 ZM 152.49 46.05 C148.18,37.56 141.39,27.00 140.24,27.00 C139.47,27.00 139.02,26.44 139.24,25.75 C139.82,24.02 144.00,23.52 144.01,25.18 C144.02,25.91 146.07,29.88 148.58,34.00 C153.04,41.34 153.13,41.42 152.76,37.65 C152.42,34.27 152.54,34.02 153.69,35.59 C154.41,36.58 155.00,37.75 155.00,38.19 C155.00,38.64 155.36,39.00 155.79,39.00 C156.23,39.00 156.45,34.24 156.29,28.43 L 155.99 17.87 L 158.75 18.18 L 161.50 18.50 L 161.78 33.40 C162.02,46.66 161.89,48.15 160.53,47.02 C159.69,46.33 159.00,44.80 159.00,43.63 C159.00,42.02 158.38,41.50 156.50,41.50 C153.70,41.50 153.59,41.79 154.98,45.43 C156.17,48.57 154.03,49.10 152.49,46.05 ZM 39.25 34.53 C39.13,27.13 39.30,20.38 39.63,19.53 C40.09,18.32 42.00,18.00 48.68,18.00 C51.81,18.00 53.78,18.01 55.01,18.14 C54.47,18.41 53.96,19.04 53.70,20.04 C53.27,21.67 52.46,22.03 49.62,21.83 C47.67,21.70 45.73,21.94 45.31,22.35 C44.89,22.77 47.24,22.98 50.53,22.81 C54.49,22.60 55.88,22.40 56.45,21.48 C55.90,22.38 54.63,22.61 51.25,22.80 C46.00,23.10 46.00,23.10 46.00,26.52 C46.00,29.16 46.34,29.80 47.51,29.36 C48.59,28.94 48.85,29.24 48.40,30.39 C47.93,31.62 48.41,32.00 50.39,32.00 C52.10,32.00 53.00,31.46 53.00,30.42 C53.00,27.78 55.48,29.46 55.82,32.33 C55.83,32.45 55.85,32.58 55.86,32.69 C55.67,32.34 55.29,32.33 54.75,32.67 C54.06,33.10 51.47,33.74 49.00,34.09 L 44.50 34.73 L 50.25 34.87 C53.93,34.95 55.40,34.79 55.84,34.08 C55.57,34.96 54.46,35.00 51.07,35.00 L 46.00 35.00 L 46.00 44.00 L 50.89 44.00 C54.51,44.00 55.95,44.43 56.42,45.64 C57.24,47.79 56.29,48.69 54.78,47.18 C54.13,46.53 51.76,46.00 49.50,46.00 C47.24,46.00 44.86,45.46 44.20,44.80 C42.67,43.27 42.63,34.77 44.16,33.24 C45.03,32.37 45.00,31.71 44.03,30.53 C43.20,29.54 42.92,27.37 43.25,24.49 C43.53,22.02 43.36,20.00 42.88,20.00 C42.39,20.00 42.00,26.30 42.00,34.00 C42.00,44.63 41.70,48.00 40.73,48.00 C39.78,48.00 39.41,44.62 39.25,34.53 ZM 170.80 33.00 L 171.10 18.00 L 179.62 18.00 C187.88,18.00 188.13,18.07 187.82,20.25 C187.54,22.24 186.79,22.56 181.25,23.00 C175.77,23.44 175.00,23.28 175.00,21.75 C175.00,20.79 174.56,20.00 174.03,20.00 C173.46,20.00 172.94,25.68 172.78,33.67 C172.62,41.64 172.08,47.48 171.50,47.67 C170.85,47.89 170.61,42.69 170.80,33.00 ZM 238.67 28.33 C237.57,27.23 237.91,23.49 239.25,22.05 C239.94,21.31 240.03,20.97 239.45,21.29 C238.88,21.61 237.80,21.50 237.07,21.04 C236.06,20.42 236.37,19.80 238.38,18.48 C240.34,17.20 242.35,16.88 246.04,17.23 C248.79,17.49 251.22,17.89 251.43,18.11 C251.65,18.32 251.61,19.62 251.34,21.00 C250.90,23.32 250.52,23.48 245.93,23.15 C241.63,22.85 241.00,23.05 241.00,24.70 C241.00,25.75 241.54,27.14 242.20,27.80 C243.13,28.73 242.95,29.00 241.37,29.00 C240.25,29.00 239.03,28.70 238.67,28.33 ZM 237.06 47.60 C234.79,46.78 234.03,46.10 234.85,45.60 C235.56,45.16 235.81,43.98 235.45,42.83 C234.89,41.08 235.06,40.96 236.84,41.91 C237.96,42.51 240.71,43.00 242.97,43.00 C247.76,43.00 249.18,40.96 246.47,37.96 C245.49,36.88 245.14,36.00 245.69,36.00 C246.24,36.00 247.51,36.90 248.50,38.00 C250.04,39.70 250.13,40.41 249.11,42.66 C248.20,44.65 248.19,45.50 249.05,46.03 C249.74,46.46 248.91,47.19 246.95,47.87 C242.99,49.25 241.49,49.21 237.06,47.60 ZM 11.36 21.50 C9.95,17.82 11.43,17.33 22.65,17.74 C28.62,17.96 33.90,18.53 34.38,19.00 C36.08,20.66 34.12,23.00 31.03,23.00 C27.98,23.00 26.92,21.60 29.25,20.66 C29.94,20.38 26.79,20.12 22.25,20.08 C15.55,20.01 14.00,20.28 14.00,21.50 C14.00,22.33 13.54,23.00 12.97,23.00 C12.40,23.00 11.68,22.33 11.36,21.50 ZM 175.55 33.83 C175.89,32.77 175.64,31.27 175.00,30.50 C174.35,29.72 174.11,28.63 174.46,28.06 C175.37,26.59 179.04,29.09 178.74,30.98 C178.61,31.82 179.06,32.46 179.75,32.40 C180.44,32.35 181.68,32.23 182.50,32.15 C183.32,32.07 184.00,31.29 184.00,30.42 C184.00,28.76 186.14,28.91 186.70,30.60 C187.41,32.72 184.29,34.80 179.72,35.27 C175.35,35.72 174.99,35.60 175.55,33.83 ZM 140.20 46.75 C140.09,45.79 139.55,45.00 139.00,45.00 C137.73,45.00 137.70,32.02 138.96,30.03 C140.54,27.53 141.12,30.81 140.75,40.08 C140.56,44.71 140.32,47.71 140.20,46.75 ZM 174.96 44.46 C174.11,43.43 174.02,42.58 174.68,41.92 C175.35,41.25 176.11,41.43 176.96,42.46 C177.80,43.46 179.95,44.00 183.12,44.00 C185.81,44.00 188.00,44.45 188.00,45.00 C188.00,46.70 176.42,46.22 174.96,44.46 ZM 145.45 24.50 C143.42,22.02 140.94,20.00 139.94,20.00 C138.94,20.00 137.84,19.55 137.50,19.00 C137.13,18.41 138.25,18.00 140.23,18.00 C143.24,18.00 143.90,18.56 146.74,23.50 C148.48,26.52 149.73,29.00 149.52,29.00 C149.31,29.00 147.47,26.98 145.45,24.50 ZM 20.14 24.82 C20.05,23.78 18.94,22.99 17.25,22.76 L 14.50 22.39 L 17.30 21.57 C20.66,20.60 21.30,21.08 20.72,24.16 C20.47,25.48 20.21,25.76 20.14,24.82 ZM 212.00 22.00 C212.00,20.90 211.60,20.00 211.11,20.00 C209.98,20.00 208.93,22.60 209.74,23.40 C210.94,24.61 212.00,23.95 212.00,22.00 ZM 200.56 39.38 C201.26,42.19 203.00,42.98 203.00,40.50 C203.00,39.67 202.55,39.00 202.00,39.00 C201.45,39.00 201.00,38.25 201.00,37.33 C201.00,36.42 200.75,35.91 200.45,36.22 C200.15,36.52 200.20,37.94 200.56,39.38 ZM 244.20 44.80 C243.27,43.87 242.73,43.87 241.80,44.80 C240.87,45.73 241.13,46.00 243.00,46.00 C244.87,46.00 245.13,45.73 244.20,44.80 ZM 84.36 43.50 C84.37,43.52 84.38,43.54 84.38,43.55 C84.75,44.51 84.51,45.39 83.86,46.14 C84.31,45.28 84.55,44.27 84.36,43.50 ZM 76.92 42.92 C77.53,42.90 78.22,42.85 79.03,42.77 C79.68,42.71 80.27,42.67 80.80,42.65 C80.70,42.66 80.60,42.68 80.50,42.69 C79.19,42.91 78.00,42.98 76.92,42.92 ZM 56.65 18.67 C56.97,19.01 56.93,19.51 56.82,20.25 C56.92,19.58 56.84,19.05 56.65,18.67 Z" fill="rgba(35,75,254,1)"/>
<path d="M 81.79 47.32 C84.18,46.37 80.98,44.00 77.30,44.00 C74.82,44.00 73.03,43.18 70.92,41.08 C69.32,39.47 68.00,37.56 68.00,36.83 C68.01,36.10 68.89,36.95 69.97,38.72 C72.15,42.30 75.39,43.52 80.50,42.69 C82.64,42.35 84.04,42.58 84.31,43.32 C84.90,44.97 83.18,48.02 81.71,47.92 C80.84,47.86 80.86,47.70 81.79,47.32 ZM 200.56 39.38 C200.20,37.94 200.15,36.52 200.45,36.22 C200.75,35.91 201.00,36.42 201.00,37.33 C201.00,38.25 201.45,39.00 202.00,39.00 C202.55,39.00 203.00,39.67 203.00,40.50 C203.00,42.98 201.26,42.19 200.56,39.38 ZM 49.00 34.09 C51.47,33.74 54.06,33.10 54.75,32.67 C55.55,32.16 56.00,32.44 56.00,33.44 C56.00,34.69 54.85,34.97 50.25,34.87 L 44.50 34.73 L 49.00 34.09 ZM 45.31 22.35 C45.73,21.94 47.67,21.70 49.62,21.83 C52.46,22.03 53.27,21.67 53.70,20.04 C54.45,17.18 57.23,17.37 56.82,20.25 C56.53,22.26 55.85,22.53 50.53,22.81 C47.24,22.98 44.89,22.77 45.31,22.35 Z" fill="rgba(42,81,255,1)"/>
</g>
</svg>